<svg width="50" height="50" viewBox="0 0 50 50" fill="none" xmlns="http://www.w3.org/2000/svg">
<g id="card">
<path id="Vector" d="M44.1808 6.25H5.98916C3.90772 6.33333 2.24638 8.14583 2.17 10.4167V39.5833C2.24638 41.8542 3.90772 43.6667 5.98916 43.75H44.1808C46.2623 43.6667 47.9236 41.8542 48 39.5833V10.4167C47.9236 8.14583 46.2623 6.33333 44.1808 6.25ZM44.1808 39.5833H5.98916V10.4167H44.1808V39.5833ZM28.9042 35.4167V32.8125C28.9042 29.3542 22.5262 27.6042 19.3562 27.6042C16.1863 27.6042 9.80833 29.3542 9.80833 32.8125V35.4167H28.9042ZM19.3562 14.5833C18.0901 14.5833 16.8758 15.1321 15.9805 16.1088C15.0853 17.0856 14.5823 18.4103 14.5823 19.7917C14.5823 20.4756 14.7058 21.1529 14.9457 21.7848C15.1856 22.4167 15.5372 22.9909 15.9805 23.4745C16.8758 24.4513 18.0901 25 19.3562 25C19.9832 25 20.604 24.8653 21.1832 24.6035C21.7624 24.3418 22.2886 23.9582 22.7319 23.4745C23.1752 22.9909 23.5269 22.4167 23.7668 21.7848C24.0067 21.1529 24.1302 20.4756 24.1302 19.7917C24.1302 19.1077 24.0067 18.4304 23.7668 17.7985C23.5269 17.1666 23.1752 16.5925 22.7319 16.1088C22.2886 15.6252 21.7624 15.2415 21.1832 14.9798C20.604 14.7181 19.9832 14.5833 19.3562 14.5833V14.5833ZM28.9042 14.5833V16.6667H40.3617V14.5833H28.9042ZM28.9042 18.75V20.8333H40.3617V18.75H28.9042ZM28.9042 22.9167V25H36.5425V22.9167H28.9042Z" fill="#1D3557"/>
</g>
</svg>
