<svg width="50" height="50" viewBox="0 0 50 50" fill="none" xmlns="http://www.w3.org/2000/svg">
<g id="card">
<path id="Vector" d="M45.8333 6.25H4.16667C1.89583 6.33333 0.0833333 8.14583 0 10.4167V39.5833C0.0833333 41.8542 1.89583 43.6667 4.16667 43.75H45.8333C48.1042 43.6667 49.9167 41.8542 50 39.5833V10.4167C49.9167 8.14583 48.1042 6.33333 45.8333 6.25ZM45.8333 39.5833H4.16667V10.4167H45.8333V39.5833ZM29.1667 35.4167V32.8125C29.1667 29.3542 22.2083 27.6042 18.75 27.6042C15.2917 27.6042 8.33333 29.3542 8.33333 32.8125V35.4167H29.1667ZM18.75 14.5833C17.3687 14.5833 16.0439 15.1321 15.0672 16.1088C14.0904 17.0856 13.5417 18.4103 13.5417 19.7917C13.5417 20.4756 13.6764 21.1529 13.9381 21.7848C14.1999 22.4167 14.5835 22.9909 15.0672 23.4745C16.0439 24.4513 17.3687 25 18.75 25C19.434 25 20.1112 24.8653 20.7431 24.6035C21.375 24.3418 21.9492 23.9582 22.4328 23.4745C22.9165 22.9909 23.3001 22.4167 23.5619 21.7848C23.8236 21.1529 23.9583 20.4756 23.9583 19.7917C23.9583 19.1077 23.8236 18.4304 23.5619 17.7985C23.3001 17.1666 22.9165 16.5925 22.4328 16.1088C21.9492 15.6252 21.375 15.2415 20.7431 14.9798C20.1112 14.7181 19.434 14.5833 18.75 14.5833ZM29.1667 14.5833V16.6667H41.6667V14.5833H29.1667ZM29.1667 18.75V20.8333H41.6667V18.75H29.1667ZM29.1667 22.9167V25H37.5V22.9167H29.1667Z" fill="#1D3557"/>
</g>
</svg>
