<svg width="50" height="50" viewBox="0 0 50 50" fill="none" xmlns="http://www.w3.org/2000/svg">
<g id="create user">
<path id="Vector" d="M39.5833 35.4167V39.5834H14.5833V35.4167C14.5833 35.4167 14.5833 27.0834 27.0833 27.0834C39.5833 27.0834 39.5833 35.4167 39.5833 35.4167ZM33.3333 16.6667C33.3333 15.4306 32.9668 14.2222 32.28 13.1944C31.5933 12.1666 30.6171 11.3655 29.4751 10.8924C28.3331 10.4194 27.0764 10.2956 25.864 10.5368C24.6516 10.7779 23.538 11.3732 22.6639 12.2473C21.7898 13.1214 21.1946 14.235 20.9534 15.4474C20.7123 16.6598 20.836 17.9164 21.3091 19.0585C21.7821 20.2005 22.5832 21.1766 23.611 21.8634C24.6388 22.5501 25.8472 22.9167 27.0833 22.9167C28.7409 22.9167 30.3306 22.2582 31.5028 21.0861C32.6749 19.914 33.3333 18.3243 33.3333 16.6667ZM40 27.2084C41.1388 28.259 42.0569 29.5259 42.7008 30.9353C43.3446 32.3446 43.7013 33.868 43.75 35.4167V39.5834H50V35.4167C50 35.4167 50 28.2292 40 27.2084ZM37.5 10.4167C36.8705 10.4171 36.245 10.5155 35.6458 10.7084C36.8647 12.4562 37.5182 14.5358 37.5182 16.6667C37.5182 18.7976 36.8647 20.8772 35.6458 22.625C36.245 22.8179 36.8705 22.9163 37.5 22.9167C39.1576 22.9167 40.7473 22.2582 41.9194 21.0861C43.0915 19.914 43.75 18.3243 43.75 16.6667C43.75 15.0091 43.0915 13.4194 41.9194 12.2473C40.7473 11.0752 39.1576 10.4167 37.5 10.4167ZM16.6667 20.8334H10.4167V14.5834H6.25V20.8334H0V25H6.25V31.25H10.4167V25H16.6667V20.8334Z" fill="#1D3557"/>
</g>
</svg>
