<svg width="50" height="50" viewBox="0 0 50 50" fill="none" xmlns="http://www.w3.org/2000/svg">
<g id="logout-icon">
<path id="Vector" d="M29.3333 32.4792L34.7292 27.0833H14.5833V22.9167H34.7292L29.3333 17.5208L32.2917 14.5833L42.7083 25L32.2917 35.4167L29.3333 32.4792ZM39.5833 6.25C40.6884 6.25 41.7482 6.68899 42.5296 7.47039C43.311 8.25179 43.75 9.3116 43.75 10.4167V20.1458L39.5833 15.9792V10.4167H10.4167V39.5833H39.5833V34.0208L43.75 29.8542V39.5833C43.75 40.6884 43.311 41.7482 42.5296 42.5296C41.7482 43.311 40.6884 43.75 39.5833 43.75H10.4167C8.10417 43.75 6.25 41.875 6.25 39.5833V10.4167C6.25 8.10417 8.10417 6.25 10.4167 6.25H39.5833Z" fill="#1D3557"/>
</g>
</svg>
