<svg width="50" height="50" viewBox="0 0 50 50" fill="none" xmlns="http://www.w3.org/2000/svg">
<g id="request">
<path id="Vector" d="M41.6667 41.6666H8.33335C7.22829 41.6666 6.16848 41.2277 5.38708 40.4463C4.60567 39.6649 4.16669 38.605 4.16669 37.5V12.5C4.16669 11.3949 4.60567 10.3351 5.38708 9.5537C6.16848 8.7723 7.22829 8.33331 8.33335 8.33331H41.6667C42.7718 8.33331 43.8316 8.7723 44.613 9.5537C45.3944 10.3351 45.8334 11.3949 45.8334 12.5V37.5C45.8334 38.605 45.3944 39.6649 44.613 40.4463C43.8316 41.2277 42.7718 41.6666 41.6667 41.6666ZM8.33335 12.5V37.5H41.6667V12.5H8.33335ZM12.5 18.75H37.5V22.9166H12.5V18.75ZM12.5 27.0833H33.3334V31.25H12.5V27.0833Z" fill="#1D3557"/>
</g>
</svg>
